# AST/ASF file generated using VICON BodyLanguage
# -----------------------------------------------
:version 1.10
:name VICON
:units
  mass 1.0
  length 0.45
  angle deg
:documentation
   .ast/.asf automatically generated from VICON data using
   VICON BodyBuilder and BodyLanguage model FoxedUp or BRILLIANT.MOD
:root
   order TX TY TZ RX RY RZ
   axis XYZ
   position 0 0 0  
   orientation 0 0 0 
:bonedata
  begin
     id 1 
     name lhipjoint
     direction 0.722297 -0.617336 0.311742 
     length 2.6635 
     axis 0 0 0  XYZ
  end
  begin
     id 2 
     name lfemur
     direction 0.34202 -0.939693 0  
     length 7.39349  
     axis 0 0 20  XYZ
    dof rx ry rz
    limits (-160.0 20.0)
           (-70.0 70.0)
           (-60.0 70.0)
  end
  begin
     id 3 
     name ltibia
     direction 0.34202 -0.939693 0   
     length 7.36294   
     axis 0 0 20   XYZ
    dof rx
    limits (-10.0 170.0)
  end
  begin
     id 4 
     name lfoot
     direction 0.104879 -0.288152 0.951824   
     length 2.16981   
     axis -90 7.62852e-016 20   XYZ
    dof rx rz
    limits (-45.0 90.0)
           (-70.0 20.0)
  end
  begin
     id 5 
     name ltoes
     direction 1.53586e-011 -4.21895e-011 1   
     length 1.08218   
     axis -90 7.62852e-016 20   XYZ
    dof rx
    limits (-90.0 20.0)
  end
  begin
     id 6 
     name rhipjoint
     direction -0.75102 -0.589393 0.297631   
     length 2.78977  
     axis 0 0 0  XYZ 
  end
  begin
     id 7 
     name rfemur
     direction -0.34202 -0.939693 0   
     length 7.46076   
     axis 0 0 -20   XYZ
    dof rx ry rz
    limits (-160.0 20.0)
           (-70.0 70.0)
           (-70.0 60.0)
  end
  begin
     id 8 
     name rtibia
     direction -0.34202 -0.939693 0   
     length 7.31726   
     axis 0 0 -20   XYZ
    dof rx
    limits (-10.0 170.0)
 end
 begin
     id 9 
     name rfoot
     direction -0.107991 -0.296704 0.948844   
     length 2.09388  
     axis -90 -7.62852e-016 -20   XYZ
    dof rx rz
    limits (-45.0 90.0)
           (-20.0 70.0)
  end
  begin
     id 10 
     name rtoes
     direction -1.53559e-011 -4.21911e-011 1   
     length 1.04433   
     axis -90 -7.62852e-016 -20   XYZ
    dof rx
    limits (-90.0 20.0)
  end
  begin
     id 11 
     name lowerback
     direction 0.0165164 0.98272 0.184358   
     length 1.71896   
     axis 0 0 0   XYZ
    dof rx ry rz
    limits (-20.0 45.0)
           (-30.0 30.0)
           (-30.0 30.0)
  end
  begin
     id 12 
     name upperback
     direction -0.00887249 0.992297 0.123566   
     length 1.71504   
     axis 0 0 0   XYZ
    dof rx ry rz
    limits (-20.0 45.0)
           (-30.0 30.0)
           (-30.0 30.0)
  end
  begin
     id 13 
     name thorax
     direction -0.0157026 0.998908 0.0440032   
     length 1.77022   
     axis 0 0 0   XYZ
    dof rx ry rz
    limits (-20.0 45.0)
           (-30.0 30.0)
           (-30.0 30.0)
  end
  begin
     id 14 
     name lowerneck
     direction -0.0238856 0.998137 0.0561411   
     length 1.89341   
     axis 0 0 0   XYZ
    dof rx ry rz
    limits (-20.0 45.0)
           (-30.0 30.0)
           (-30.0 30.0)
  end
  begin
     id 15 
     name upperneck
     direction 0.0276574 0.952253 -0.304056   
     length 1.86999   
     axis 0 0 0   XYZ
    dof rx ry rz
    limits (-20.0 45.0)
           (-30.0 30.0)
           (-30.0 30.0)
  end
  begin
     id 16
     name head
     direction 0.00800083 0.994258 -0.106712  
     length 1.91492  
     axis 0 0 0   XYZ
    dof rx ry rz
    limits (-20.0 45.0)
           (-30.0 30.0)
           (-30.0 30.0)
  end
  begin
     id 17 
     name lclavicle
     direction 0.97203 0.225407 0.06595  
     length 3.34889  
     axis 0 0 0   XYZ
    dof ry rz
    limits (-20.0 10.0)
           (0.0 20.0)
  end
  begin
     id 18 
     name lhumerus
     direction 1 -4.48973e-011 2.20267e-027   
     length 4.85645   
     axis 180 -30 -90   XYZ
    dof rx ry rz
    limits (-60.0 90.0)
           (-90.0 90.0)
           (-90.0 90.0)
  end
  begin
     id 19
     name lradius
     direction 1 -4.4897e-011 4.60472e-027   
     length 2.79874   
     axis 180 -30 -90   XYZ
    dof rx
    limits (-10.0 170.0)
  end
  begin
     id 20
     name lwrist
     direction 1 -4.48952e-011 1.14928e-026   
     length 1.39937   
     axis -6.29373e-015 90 90   XYZ
    dof ry
    limits (-180.0 0.0)
 end
  begin
     id 21 
     name lhand
     direction 1 -4.48967e-011 2.29886e-026   
     length 0.573398   
     axis -1.46689e-014 90 90   XYZ
    dof rx rz
    limits (-90.0 90.0)
           (-45.0 45.0)
  end
  begin
     id 22 
     name lfingers
     direction 1 -4.48955e-011 4.59726e-026   
     length 0.462289   
     axis -2.93383e-014 90 90   XYZ
    dof rx
    limits (0.0 90.0)
  end
  begin
     id 23
     name lthumb
     direction 0.707107 -6.34866e-011 0.707107   
     length 0.663757   
     axis -90 45 5.69224e-014   XYZ
    dof rx rz
    limits (-45.0 45.0)
           (-45.0 45.0)
  end
  begin
     id 24 
     name rclavicle
     direction -0.981571 0.157346 0.108443   
     length 3.35257  
     axis 0 0 0   XYZ 
    dof ry rz
    limits (-10.0 20.0)
           (-20.0 0.0)
  end
  begin
     id 25 
     name rhumerus
     direction -1 -4.48967e-011 8.58308e-029  
     length 4.67018   
     axis 180 30 90   XYZ
    dof rx ry rz
    limits (-90.0 60.0)
           (-90.0 90.0)
           (-90.0 90.0)
  end
  begin
     id 26 
     name rradius
     direction -1 -4.48958e-011 4.52548e-027   
     length 2.65534   
     axis 180 30 90   XYZ
    dof rx
    limits (-10.0 170.0)
  end
  begin
     id 27 
     name rwrist
     direction -1 -4.48977e-011 1.14952e-026   
     length 1.32767   
     axis -6.29373e-015 -90 -90   XYZ
    dof ry
    limits (-180.0 0.0)
  end
  begin
     id 28
     name rhand
     direction -1 -4.48924e-011 2.29804e-026   
     length 0.594069   
     axis -1.46689e-014 -90 -90   XYZ
    dof rx rz
    limits (-90.0 90.0)
           (-45.0 45.0)
  end
  begin
     id 29
     name rfingers
     direction -1 -4.48998e-011 4.59888e-026   
     length 0.478954   
     axis -2.93383e-014 -90 -90   XYZ
    dof rx
    limits (0.0 90.0)
  end
  begin
     id 30
     name rthumb
     direction -0.707107 -6.34933e-011 0.707107   
     length 0.687685   
     axis -90 -45 -5.69224e-014   XYZ
    dof rx rz
    limits (-45.0 45.0)
           (-45.0 45.0)
  end
:hierarchy
  begin
    root lhipjoint rhipjoint lowerback
    lhipjoint lfemur
    lfemur ltibia
    ltibia lfoot
    lfoot ltoes
    rhipjoint rfemur
    rfemur rtibia
    rtibia rfoot
    rfoot rtoes
    lowerback upperback
    upperback thorax
    thorax lowerneck lclavicle rclavicle
    lowerneck upperneck
    upperneck head
    lclavicle lhumerus
    lhumerus lradius
    lradius lwrist
    lwrist lhand lthumb
    lhand lfingers
    rclavicle rhumerus
    rhumerus rradius
    rradius rwrist
    rwrist rhand rthumb
    rhand rfingers
  end

#!OML:ASF E:\pregnant2\Project 1\Capture day 1\Session 1\pregnant2.ASF
:FULLY-SPECIFIED
:DEGREES
1
root 5.24537 16.416 37.6987 -139.916 1.94454 175.14
lowerback -22.8586 -5.25772 -1.44156
upperback -18.2901 -1.36669 1.43705
thorax -7.54548 1.93049 1.84839
lowerneck -14.8405 -5.41763 -2.77119
upperneck 41.7621 -1.35645 -2.38333
head 18.1428 0.429544 -0.307972
rclavicle 7.95139e-016 -2.78299e-015
rhumerus -56.0554 7.38621 -84.7845
rradius 33.0672
rwrist 9.17471
rhand -12.9642 -16.9315
rfingers 7.12502
rthumb 13.1277 -46.4983
lclavicle 7.95139e-016 -2.78299e-015
lhumerus -47.4905 -7.05801 92.5335
lradius 41.1623
lwrist -5.17381
lhand -5.56522 25.3678
lfingers 7.12502
lthumb 20.2503 54.3322
rfemur -67.0967 -3.28813 20.7486
rtibia 77.7241
rfoot -5.77364 -10.5322
rtoes -2.06711
lfemur -62.0607 -13.3079 -20.3722
ltibia 35.8098
lfoot -13.0676 8.91799
ltoes -11.9954
2
root 5.23201 16.4125 37.5935 -139.79 2.10305 175.24
lowerback -22.9747 -5.20663 -1.25843
upperback -18.2891 -1.32519 1.47201
thorax -7.49769 1.93506 1.79128
lowerneck -14.8378 -5.3942 -2.74508
upperneck 41.8787 -1.29218 -2.37037
head 18.2121 0.471835 -0.291495
rclavicle -1.07344e-014 -3.18055e-015
rhumerus -56.1967 7.25488 -84.5283
rradius 33.0871
rwrist 8.92418
rhand -12.6806 -16.9218
rfingers 7.12502
rthumb 13.4011 -46.4707
lclavicle -1.07344e-014 -3.18055e-015
lhumerus -47.0817 -7.53425 92.7297
lradius 41.3853
lwrist -5.00388
lhand -5.70406 25.5353
lfingers 7.12502
lthumb 20.1168 54.5137
rfemur -68.318 -3.10857 20.847
rtibia 77.5853
rfoot -6.26969 -10.3097
rtoes -2.70264
lfemur -61.914 -13.3033 -20.3871
ltibia 36.0891
lfoot -13.514 9.25186
ltoes -12.0045
3
root 5.22034 16.4114 37.4866 -139.743 2.25567 175.331
lowerback -23.0295 -5.10653 -1.09094
upperback -18.2516 -1.2398 1.43295
thorax -7.43768 1.94806 1.67093
lowerneck -14.9408 -5.38968 -2.6523
upperneck 42.0257 -1.29069 -2.33807
head 18.3261 0.500845 -0.291391
rclavicle -2.28602e-015 6.75868e-015
rhumerus -56.2653 6.93595 -84.2574
rradius 33.0269
rwrist 8.90252
rhand -12.6122 -16.8678
rfingers 7.12502
rthumb 13.467 -46.4124
lclavicle -2.28602e-015 6.75868e-015
lhumerus -46.6075 -8.03249 92.8177
lradius 41.5201
lwrist -4.92454
lhand -6.05352 25.388
lfingers 7.12502
lthumb 19.7809 54.4014
rfemur -69.3522 -2.92154 20.9387
rtibia 77.1509
rfoot -6.65479 -10.0184
rtoes -3.35875
lfemur -61.5629 -13.2459 -20.4754
ltibia 36.2042
lfoot -13.9427 9.44231
ltoes -11.836
4
root 5.21635 16.4222 37.3702 -139.99 2.20422 175.249
lowerback -22.9525 -5.18694 -1.18517
upperback -18.1415 -1.39446 1.50367
thorax -7.32765 1.85381 1.7829
lowerneck -14.883 -5.39277 -2.72857
upperneck 42.1088 -1.25326 -2.29832
head 18.3646 0.517613 -0.248912
rclavicle 1.27222e-014 8.74653e-015
rhumerus -56.329 6.83297 -83.9593
rradius 32.8869
rwrist 8.96121
rhand -12.6458 -16.5932
rfingers 7.12502
rthumb 13.4346 -46.14
lclavicle 1.27222e-014 8.74653e-015
lhumerus -46.23 -8.19452 92.8582
lradius 41.6825
lwrist -4.87933
lhand -6.45638 25.3839
lfingers 7.12502
lthumb 19.3936 54.4368
rfemur -69.9091 -2.82795 20.8739
rtibia 76.5432
rfoot -7.57766 -9.66027
rtoes -4.32952
lfemur -60.8249 -13.1459 -20.9004
ltibia 36.3458
lfoot -14.5444 9.34384
ltoes -11.9321
5
root 5.20874 16.4202 37.261 -139.981 2.30997 175.292
lowerback -23.0049 -5.16621 -1.13498
upperback -18.1052 -1.39194 1.5332
thorax -7.25995 1.843 1.78975
lowerneck -14.8888 -5.39111 -2.73089
upperneck 42.2161 -1.23054 -2.25724
head 18.4326 0.541244 -0.222167
rclavicle 6.75868e-015 -1.70955e-014
rhumerus -56.4152 6.6527 -83.6959
rradius 32.8436
rwrist 8.91285
rhand -12.5987 -16.6058
rfingers 7.12502
rthumb 13.48 -46.1496
lclavicle 6.75868e-015 -1.70955e-014
lhumerus -45.8065 -8.50816 92.9082
lradius 41.8533
lwrist -4.77342
lhand -6.56274 25.6276
lfingers 7.12502
lthumb 19.2913 54.6907
rfemur -70.8081 -2.59341 20.854
rtibia 75.8671
rfoot -8.0962 -9.2988
rtoes -4.90626
lfemur -60.4446 -13.0117 -21.1216
ltibia 36.5172
lfoot -15.0437 9.4129
ltoes -11.9476
6
root 5.20199 16.4165 37.152 -139.946 2.42968 175.346
lowerback -23.0703 -5.14381 -1.08913
upperback -18.0799 -1.3797 1.56824
thorax -7.19953 1.84116 1.80601
lowerneck -14.8819 -5.38267 -2.7268
upperneck 42.3094 -1.20016 -2.2202
head 18.4885 0.567983 -0.196843
rclavicle 1.87852e-014 1.59028e-015
rhumerus -56.5004 6.48782 -83.4478
rradius 32.8204
rwrist 8.85656
rhand -12.5775 -16.6679
rfingers 7.12502
rthumb 13.5004 -46.2103
lclavicle 1.87852e-014 1.59028e-015
lhumerus -45.3828 -8.77956 92.9289
lradius 42.0292
lwrist -4.63928
lhand -6.5797 25.9968
lfingers 7.12502
lthumb 19.275 55.0615
rfemur -71.6882 -2.31323 20.8005
rtibia 75.0212
rfoot -8.559 -8.92197
rtoes -5.42848
lfemur -60.1005 -12.8609 -21.3279
ltibia 36.6949
lfoot -15.5448 9.47615
ltoes -11.9322
7
root 5.19604 16.4109 37.0427 -139.904 2.55064 175.411
lowerback -23.1239 -5.12278 -1.03712
upperback -18.0634 -1.36794 1.61266
thorax -7.15568 1.84053 1.82857
lowerneck -14.865 -5.36283 -2.71148
upperneck 42.3865 -1.15351 -2.19717
head 18.5314 0.600142 -0.177091
rclavicle 7.95139e-016 5.56597e-015
rhumerus -56.5858 6.34826 -83.2139
rradius 32.8284
rwrist 8.77226
rhand -12.547 -16.7628
rfingers 7.12502
rthumb 13.5298 -46.3032
lclavicle 7.95139e-016 5.56597e-015
lhumerus -44.96 -9.0049 92.9264
lradius 42.2153
lwrist -4.45619
lhand -6.59519 26.4033
lfingers 7.12502
lthumb 19.2601 55.4695
rfemur -72.5277 -2.00358 20.7217
rtibia 74.0418
rfoot -8.98766 -8.56279
rtoes -5.86746
lfemur -59.7977 -12.7247 -21.4976
ltibia 36.9396
lfoot -16.0719 9.58084
ltoes -11.9164
8
root 5.19069 16.4036 36.9332 -139.845 2.68096 175.498
lowerback -23.1629 -5.08948 -0.964852
upperback -18.0573 -1.34054 1.65619
thorax -7.13337 1.84741 1.84087
lowerneck -14.8564 -5.33866 -2.67537
upperneck 42.4525 -1.10536 -2.18933
head 18.5691 0.632802 -0.168425
rclavicle 7.35503e-015 1.63003e-014
rhumerus -56.6668 6.21498 -82.999
rradius 32.875
rwrist 8.64602
rhand -12.4959 -16.9061
rfingers 7.12502
rthumb 13.5791 -46.4432
lclavicle 7.35503e-015 1.63003e-014
lhumerus -44.5324 -9.21375 92.9053
lradius 42.3972
lwrist -4.23317
lhand -6.64404 26.7717
lfingers 7.12502
lthumb 19.2131 55.8426
rfemur -73.3265 -1.65747 20.6221
rtibia 72.8914
rfoot -9.35685 -8.24655
rtoes -6.26565
lfemur -59.5176 -12.6133 -21.608
ltibia 37.1844
lfoot -16.5817 9.73934
ltoes -11.8883
9
root 5.18637 16.3979 36.8218 -139.831 2.77773 175.575
lowerback -23.1773 -5.07178 -0.898175
upperback -18.0395 -1.34077 1.71069
thorax -7.107 1.83803 1.86442
lowerneck -14.8278 -5.30113 -2.64018
upperneck 42.4981 -1.03655 -2.19032
head 18.5888 0.671189 -0.15992
rclavicle -3.8763e-015 1.31198e-014
rhumerus -56.7308 6.11687 -82.7935
rradius 32.9072
rwrist 8.54005
rhand -12.4626 -16.9484
rfingers 7.12502
rthumb 13.6112 -46.4834
lclavicle -3.8763e-015 1.31198e-014
lhumerus -44.1185 -9.36934 92.8648
lradius 42.5649
lwrist -4.00297
lhand -6.81871 27.0168
lfingers 7.12502
lthumb 19.0452 56.1044
rfemur -73.9878 -1.31952 20.4946
rtibia 71.561
rfoot -9.67039 -8.01101
rtoes -6.53902
lfemur -59.1682 -12.5607 -21.6865
ltibia 37.3989
lfoot -17.0734 9.94002
ltoes -11.8868
10
root 5.18307 16.393 36.7089 -139.834 2.8661 175.657
lowerback -23.1604 -5.04922 -0.825562
upperback -18.0194 -1.34025 1.76277
thorax -7.09316 1.82642 1.88226
lowerneck -14.8254 -5.27023 -2.59915
upperneck 42.543 -0.980909 -2.20039
head 18.615 0.702292 -0.160105
rclavicle -1.44119e-014 -8.74653e-015
rhumerus -56.7845 6.02132 -82.5968
rradius 32.9498
rwrist 8.45051
rhand -12.4345 -16.9494
rfingers 7.12502
rthumb 13.6382 -46.4826
lclavicle -1.44119e-014 -8.74653e-015
lhumerus -43.7077 -9.51768 92.8134
lradius 42.7117
lwrist -3.76676
lhand -7.109 27.1005
lfingers 7.12502
lthumb 18.766 56.2153
rfemur -74.5482 -0.96427 20.3363
rtibia 70.0489
rfoot -10.0245 -7.8614
rtoes -6.94683
lfemur -58.7733 -12.5426 -21.7281
ltibia 37.5671
lfoot -17.5337 10.1807
ltoes -11.9001
11
root 5.1808 16.3902 36.5951 -139.835 2.95564 175.74
lowerback -23.1578 -5.02754 -0.763479
upperback -17.998 -1.33735 1.81407
thorax -7.07064 1.81767 1.90553
lowerneck -14.8186 -5.24193 -2.5645
upperneck 42.5805 -0.931857 -2.2051
head 18.6357 0.729951 -0.157993
rclavicle -7.65321e-015 1.35174e-014
rhumerus -56.8275 5.93288 -82.4074
rradius 32.9664
rwrist 8.42005
rhand -12.452 -16.8435
rfingers 7.12502
rthumb 13.6214 -46.3779
lclavicle -7.65321e-015 1.35174e-014
lhumerus -43.3084 -9.65665 92.7538
lradius 42.8165
lwrist -3.55645
lhand -7.41114 27.1314
lfingers 7.12502
lthumb 18.4754 56.2741
rfemur -75.0261 -0.585917 20.1297
rtibia 68.3495
rfoot -10.3441 -7.81332
rtoes -7.24642
lfemur -58.3418 -12.5439 -21.7519
ltibia 37.6608
lfoot -17.9456 10.4433
ltoes -11.9405
12
root 5.17934 16.3894 36.4807 -139.817 3.05772 175.819
lowerback -23.1836 -5.00648 -0.711474
upperback -17.98 -1.32853 1.86297
thorax -7.03844 1.81489 1.93253
lowerneck -14.8143 -5.21717 -2.53869
upperneck 42.6189 -0.888997 -2.20187
head 18.6579 0.754729 -0.151733
rclavicle 4.37326e-015 2.06736e-014
rhumerus -56.8574 5.85229 -82.2288
rradius 32.9569
rwrist 8.44484
rhand -12.5156 -16.6586
rfingers 7.12502
rthumb 13.5601 -46.197
lclavicle 4.37326e-015 2.06736e-014
lhumerus -42.93 -9.79248 92.689
lradius 42.8892
lwrist -3.375
lhand -7.73112 27.1106
lfingers 7.12502
lthumb 18.1675 56.2822
rfemur -75.443 -0.183113 19.8643
rtibia 66.4633
rfoot -10.6061 -7.87534
rtoes -7.37048
lfemur -57.8924 -12.5516 -21.7698
ltibia 37.6747
lfoot -18.3094 10.7132
ltoes -11.991
13
root 5.17884 16.3916 36.3655 -139.791 3.16871 175.886
lowerback -23.2238 -4.99007 -0.680425
upperback -17.9645 -1.31945 1.90678
thorax -7.00141 1.8153 1.9656
lowerneck -14.8103 -5.19852 -2.52283
upperneck 42.6565 -0.856541 -2.19144
head 18.6801 0.774503 -0.142343
rclavicle -1.51076e-014 -2.38542e-015
rhumerus -56.881 5.78078 -82.0647
rradius 32.9395
rwrist 8.50889
rhand -12.6028 -16.4163
rfingers 7.12502
rthumb 13.4761 -45.9603
lclavicle -1.51076e-014 -2.38542e-015
lhumerus -42.5701 -9.92454 92.6187
lradius 42.9496
lwrist -3.17401
lhand -8.01093 27.135
lfingers 7.12502
lthumb 17.8983 56.3314
rfemur -75.7792 0.231998 19.5311
rtibia 64.3919
rfoot -10.8075 -8.03879
rtoes -7.32153
lfemur -57.4031 -12.5568 -21.8068
ltibia 37.5964
lfoot -18.6184 10.9762
ltoes -12.0936
14
root 5.17924 16.3969 36.2493 -139.753 3.29777 175.938
lowerback -23.2762 -4.97545 -0.66851
upperback -17.9542 -1.30611 1.94269
thorax -6.96429 1.82087 2.00121
lowerneck -14.813 -5.1807 -2.50472
upperneck 42.6937 -0.826781 -2.18233
head 18.7038 0.793022 -0.134649
rclavicle -9.93923e-016 -1.51076e-014
rhumerus -56.901 5.7197 -81.9191
rradius 32.9398
rwrist 8.57916
rhand -12.6762 -16.1898
rfingers 7.12502
rthumb 13.4053 -45.7385
lclavicle -9.93923e-016 -1.51076e-014
lhumerus -42.2253 -10.0554 92.5437
lradius 42.9908
lwrist -2.95177
lhand -8.28409 27.1571
lfingers 7.12502
lthumb 17.6355 56.3773
rfemur -76.0425 0.659222 19.1235
rtibia 62.1404
rfoot -10.9398 -8.29464
rtoes -7.12533
lfemur -56.8783 -12.5498 -21.8684
ltibia 37.4263
lfoot -18.8873 11.212
ltoes -12.1824
